<?xml version="1.0" ?><svg style="enable-background:new 0 0 48 48.00004;" version="1.1" viewBox="0 0 48 48.00004" xml:space="preserve" xmlns="http://www.w3.org/2000/svg" xmlns:xlink="http://www.w3.org/1999/xlink"><g id="Icons"><g id="Icons_4_"><g><path d="M23.995,8.65502c-8.47,0-15.34,6.87-15.34,15.3399c0,8.4801,6.87,15.3501,15.34,15.3501     c8.48,0,15.35-6.87,15.35-15.3501C39.345,15.52502,32.475,8.65502,23.995,8.65502z M19.645,31.68502     c0,0.1799-0.05,0.2299-0.23,0.2299h-2.87c-0.18,0-0.24-0.05-0.23-0.2299v-10.15c-0.01-0.1801,0.06-0.2401,0.23-0.2301h2.87     c0.19-0.01,0.23,0.05,0.23,0.2301V31.68502z M17.985,19.93502c-1.06,0.01-1.93-0.87-1.93-1.93c0-1,0.78-1.92,1.92-1.93     c1.08,0,1.94,0.81,1.94,1.93C19.915,19.10492,19.075,19.92492,17.985,19.93502z M31.645,31.91492h-2.81     c-0.23,0-0.24-0.0099-0.24-0.25v-5.1299c0-0.4901-0.01-0.97-0.15-1.44c-0.22-0.73-0.7-1.08-1.46-1.1     c-0.54-0.0101-1.05,0.09-1.44,0.51c-0.3,0.33-0.44,0.74-0.49,1.1699c-0.0399,0.3901-0.07,0.7901-0.07,1.19     c-0.01,1.6101-0.01,3.2201,0,4.8301c0,0.1699-0.05,0.2199-0.2199,0.2199H21.875c-0.17,0-0.23-0.05-0.23-0.2199     c0.01-3.39,0.01-6.7801,0-10.17c0-0.18,0.06-0.22,0.23-0.22h2.7601c0.1799,0,0.2299,0.06,0.2299,0.23c-0.01,0.37,0,0.75,0,1.12     c0.5201-0.76,1.22-1.26,2.1-1.47c1.02-0.25,2.03-0.18,2.99,0.24c0.9301,0.4,1.4301,1.16,1.69,2.1     c0.1801,0.61,0.26,1.24,0.27,1.88c0.01,2.07,0.02,4.15,0.0301,6.22C31.945,31.91492,31.945,31.91492,31.645,31.91492z" style="fill:#0097D3;"/></g></g></g></svg>